<mxfile host="app.diagrams.net" modified="2022-04-20T13:02:55.890Z" agent="5.0 (Macintosh; Intel Mac OS X 10_15_7) AppleWebKit/537.36 (KHTML, like Gecko) Chrome/100.0.4896.88 Safari/537.36" etag="GDRHxxr4eTfBoKHTuQ7B" version="17.4.5" type="github">
  <diagram id="NXiF5pYvuGFTyCZFgfCX" name="Page-1">
    <mxGraphModel dx="1426" dy="776" grid="1" gridSize="10" guides="1" tooltips="1" connect="1" arrows="1" fold="1" page="1" pageScale="1" pageWidth="827" pageHeight="1169" math="0" shadow="0">
      <root>
        <mxCell id="0" />
        <mxCell id="1" parent="0" />
        <mxCell id="Mq3Qd4NMwjSyaezHSede-2" value="Flink 引擎管理" style="swimlane;" vertex="1" parent="1">
          <mxGeometry x="180" y="140" width="500" height="280" as="geometry" />
        </mxCell>
        <mxCell id="Mq3Qd4NMwjSyaezHSede-3" value="Overview" style="rounded=0;whiteSpace=wrap;html=1;fillColor=#CCFFE6;" vertex="1" parent="Mq3Qd4NMwjSyaezHSede-2">
          <mxGeometry x="10" y="30" width="110" height="50" as="geometry" />
        </mxCell>
        <mxCell id="Mq3Qd4NMwjSyaezHSede-4" value="状态诊断" style="rounded=0;whiteSpace=wrap;html=1;" vertex="1" parent="Mq3Qd4NMwjSyaezHSede-2">
          <mxGeometry x="138" y="30" width="106" height="50" as="geometry" />
        </mxCell>
        <mxCell id="Mq3Qd4NMwjSyaezHSede-5" value="数据处理诊断" style="rounded=0;whiteSpace=wrap;html=1;" vertex="1" parent="Mq3Qd4NMwjSyaezHSede-2">
          <mxGeometry x="260" y="30" width="106" height="50" as="geometry" />
        </mxCell>
        <mxCell id="Mq3Qd4NMwjSyaezHSede-6" value="健壮性诊断" style="rounded=0;whiteSpace=wrap;html=1;" vertex="1" parent="Mq3Qd4NMwjSyaezHSede-2">
          <mxGeometry x="380" y="30" width="106" height="50" as="geometry" />
        </mxCell>
        <mxCell id="Mq3Qd4NMwjSyaezHSede-7" value="总作业数" style="text;html=1;strokeColor=none;fillColor=none;align=center;verticalAlign=middle;whiteSpace=wrap;rounded=0;" vertex="1" parent="Mq3Qd4NMwjSyaezHSede-2">
          <mxGeometry x="20" y="110" width="60" height="30" as="geometry" />
        </mxCell>
        <mxCell id="Mq3Qd4NMwjSyaezHSede-8" value="失败作业数" style="text;html=1;strokeColor=none;fillColor=none;align=center;verticalAlign=middle;whiteSpace=wrap;rounded=0;" vertex="1" parent="Mq3Qd4NMwjSyaezHSede-2">
          <mxGeometry x="130" y="110" width="90" height="30" as="geometry" />
        </mxCell>
        <mxCell id="Mq3Qd4NMwjSyaezHSede-9" value="CPU使用比例" style="text;html=1;strokeColor=none;fillColor=none;align=center;verticalAlign=middle;whiteSpace=wrap;rounded=0;" vertex="1" parent="Mq3Qd4NMwjSyaezHSede-2">
          <mxGeometry x="276" y="110" width="90" height="30" as="geometry" />
        </mxCell>
        <mxCell id="Mq3Qd4NMwjSyaezHSede-10" value="内存使用比例" style="text;html=1;strokeColor=none;fillColor=none;align=center;verticalAlign=middle;whiteSpace=wrap;rounded=0;" vertex="1" parent="Mq3Qd4NMwjSyaezHSede-2">
          <mxGeometry x="10" y="150" width="90" height="30" as="geometry" />
        </mxCell>
      </root>
    </mxGraphModel>
  </diagram>
</mxfile>
